<svg width="600" height="668" viewBox="0 0 600 668" fill="none" xmlns="http://www.w3.org/2000/svg">
<path d="M0 281.223C0 174.636 2.98023e-06 121.343 12.584 103.414C25.1677 85.4847 75.2773 68.332 175.497 34.0264L194.591 27.4907C246.833 9.60802 272.953 0.666687 300 0.666687C327.047 0.666687 353.167 9.60802 405.41 27.4907L424.503 34.0264C524.723 68.332 574.833 85.4847 587.417 103.414C600 121.343 600 174.636 600 281.223C600 297.32 600 314.78 600 333.713C600 521.647 458.7 612.85 370.047 651.577C346 662.08 333.977 667.333 300 667.333C266.023 667.333 254 662.08 229.952 651.577C141.299 612.85 0 521.647 0 333.713C0 314.78 0 297.32 0 281.223Z" fill="#1A97F0"/>
<circle cx="300" cy="334" r="186" stroke="white" stroke-width="40"/>
<path d="M506 192L296.312 402L201 306.545" stroke="#1A97F0" stroke-width="80" stroke-linecap="round" stroke-linejoin="round"/>
<path d="M506 192L296.312 402L201 306.545" stroke="white" stroke-width="40" stroke-linecap="round" stroke-linejoin="round"/>
</svg>
