<svg width="167" height="167" viewBox="0 0 167 167" fill="none" xmlns="http://www.w3.org/2000/svg">
<path d="M69.5833 146.125H43.1417C35.3476 146.125 31.4506 146.125 28.4736 144.608C25.855 143.274 23.726 141.145 22.3918 138.527C20.875 135.55 20.875 131.652 20.875 123.858V57.0583C20.875 49.2643 20.875 45.3672 22.3918 42.3903C23.726 39.7717 25.855 37.6427 28.4736 36.3085C31.4506 34.7917 35.3476 34.7917 43.1417 34.7917H123.858C131.652 34.7917 135.55 34.7917 138.527 36.3085C141.145 37.6427 143.274 39.7717 144.608 42.3903C146.125 45.3672 146.125 49.2643 146.125 57.0583V69.5833M48.7083 20.875V34.7917M118.292 20.875V34.7917M20.875 62.625H146.125M93.9375 90.459L48.7083 90.4583M69.5833 118.292L48.7083 118.292M97.4167 146.125L111.507 143.307C112.735 143.061 113.35 142.938 113.923 142.713C114.431 142.514 114.915 142.255 115.362 141.943C115.867 141.591 116.31 141.148 117.196 140.262L146.125 111.333C149.968 107.49 149.968 101.26 146.125 97.4167C142.282 93.5736 136.051 93.5736 132.208 97.4167L103.28 126.345C102.393 127.232 101.951 127.674 101.599 128.179C101.286 128.627 101.027 129.11 100.828 129.619C100.604 130.192 100.48 130.806 100.235 132.034L97.4167 146.125Z" stroke="#171823" stroke-width="6" stroke-linecap="round" stroke-linejoin="round"/>
</svg>
