<svg xmlns="http://www.w3.org/2000/svg" viewBox="0 0 359.76 386.41"><defs><style>.cls-1{fill:#3c3c3b;}.cls-2{fill:#b2b2b2;}.cls-13,.cls-3,.cls-4,.cls-5,.cls-9{fill:none;}.cls-3,.cls-4{stroke:#3c3c3b;}.cls-13,.cls-3,.cls-4,.cls-5,.cls-7,.cls-8{stroke-miterlimit:10;}.cls-3{stroke-width:3px;}.cls-13,.cls-4{stroke-linecap:round;}.cls-4,.cls-7,.cls-8,.cls-9{stroke-width:4px;}.cls-5,.cls-7{stroke:#575756;}.cls-6,.cls-7{fill:#575756;}.cls-8{fill:#9d9d9c;stroke:#878787;}.cls-9{stroke:#706f6f;stroke-linejoin:round;}.cls-10{fill:#97cbeb;}.cls-11{fill:#3d90ce;}.cls-12{fill:#fff;}.cls-13{stroke:#fff;stroke-width:8px;}</style></defs><g id="Camada_1" data-name="Camada 1"><rect class="cls-1" y="34.76" width="317.21" height="351.65" rx="23.77"/></g><g id="Camada_2" data-name="Camada 2"><path class="cls-2" d="M371.28,364.2H122.92a9.22,9.22,0,0,1-6.38-2.64,9,9,0,0,1-2.64-6.38v-289a9,9,0,0,1,9-9H371.28a9,9,0,0,1,9,9v289A9,9,0,0,1,371.28,364.2Z" transform="translate(-88.49 -0.83)"/><rect class="cls-3" x="46.75" y="87.61" width="34.56" height="34.56" rx="3.42"/><rect class="cls-3" x="46.75" y="143.77" width="34.56" height="34.56" rx="3.42"/><rect class="cls-3" x="46.75" y="203.53" width="34.56" height="34.56" rx="3.42"/><rect class="cls-3" x="46.75" y="259.69" width="34.56" height="34.56" rx="3.42"/><line class="cls-4" x1="105.45" y1="104.89" x2="261.07" y2="104.89"/><line class="cls-4" x1="105.45" y1="161.05" x2="261.07" y2="161.05"/><line class="cls-4" x1="106.94" y1="220.81" x2="262.56" y2="220.81"/><line class="cls-4" x1="105.45" y1="276.97" x2="261.07" y2="276.97"/><path class="cls-5" d="M341,327.3" transform="translate(-88.49 -0.83)"/></g><g id="Camada_5" data-name="Camada 5"><path class="cls-6" d="M340,359.36c-.3-18.1-.2-30.28.08-32.84a4.82,4.82,0,0,1,1.08-2.81,3.85,3.85,0,0,1,1.51-.91,3.6,3.6,0,0,1,1.1-.16h31.8Z" transform="translate(-88.49 -0.83)"/><path class="cls-6" d="M357.65,324.63h13.21l-10.48,10.82L341.94,354.5c-.21-15.33-.11-25.49.14-27.76a2.78,2.78,0,0,1,.51-1.61,1.73,1.73,0,0,1,.68-.42,1.8,1.8,0,0,1,.53-.07h13.85m0-4H343.77a5.62,5.62,0,0,0-1.68.25,5.73,5.73,0,0,0-2.33,1.41,6.58,6.58,0,0,0-1.66,4c-.33,3.09-.4,17.81,0,37.9l42.2-43.57Z" transform="translate(-88.49 -0.83)"/><path class="cls-7" d="M448.44,346.68" transform="translate(-88.49 -0.83)"/></g><g id="Camada_6" data-name="Camada 6"><polygon class="cls-1" points="252.36 363.42 291.04 323.48 304.16 358.76 265.37 377.49 252.36 363.42"/><path class="cls-1" d="M378.76,328,384,342l6.16,16.57-17.6,8.5-18.21,8.79-6.45-7-4.27-4.62,18.46-19.07L378.76,328m1.54-7.34-42.2,43.57,15.3,16.55,41.76-20.16-14.86-40Z" transform="translate(-88.49 -0.83)"/></g><g id="Camada_4" data-name="Camada 4"><path class="cls-8" d="M193.4,21.66h28.89a7.17,7.17,0,0,0,6.81-5.18,18.68,18.68,0,0,1,36,.11,7.13,7.13,0,0,0,6.83,5.07h28.85a7.15,7.15,0,0,1,7.15,7.14V55.92a7.15,7.15,0,0,1-7.15,7.14H193.4a7.14,7.14,0,0,1-7.14-7.14V28.8A7.14,7.14,0,0,1,193.4,21.66Z" transform="translate(-88.49 -0.83)"/><path class="cls-9" d="M338.1,320.64" transform="translate(-88.49 -0.83)"/><path class="cls-9" d="M338.1,364.56" transform="translate(-88.49 -0.83)"/><path class="cls-9" d="M380.82,321.9" transform="translate(-88.49 -0.83)"/><path class="cls-9" d="M336.9,321.9" transform="translate(-88.49 -0.83)"/></g><g id="Camada_7" data-name="Camada 7"><path class="cls-10" d="M297.38,245.54a70.25,70.25,0,1,1,52.92-24A70.2,70.2,0,0,1,297.38,245.54Z" transform="translate(-88.49 -0.83)"/><path class="cls-11" d="M297.44,113a62.25,62.25,0,1,1-46.91,21.29A62.18,62.18,0,0,1,297.44,113h0m0-16a78.26,78.26,0,1,0,51.45,19.33A78.09,78.09,0,0,0,297.44,97Z" transform="translate(-88.49 -0.83)"/><path class="cls-11" d="M427.41,300A17.33,17.33,0,0,1,416,295.7l-73.85-64.52L365,205.07l73.85,64.52A17.34,17.34,0,0,1,427.41,300Z" transform="translate(-88.49 -0.83)"/><path class="cls-11" d="M365.31,210l71.21,62.23a13.84,13.84,0,0,1-18.21,20.84L347.1,230.85,365.31,210m-.66-9.87-27.42,31.38,76.47,66.83a20.86,20.86,0,0,0,29.41-2h0a20.85,20.85,0,0,0-2-29.41l-76.48-66.82Z" transform="translate(-88.49 -0.83)"/></g><g id="Camada_8" data-name="Camada 8"><circle class="cls-12" cx="207.43" cy="202.78" r="8.1"/><path class="cls-13" d="M282.24,150c.63-.84.36-11.07,13.43-11.07.88,0,10.32.18,13.44,7,2.26,4.88-.12,11-4.74,16.18-3.89,4.37-5.55,5.86-6.91,9.65-.12.34-.24.69-.35,1.05a26.2,26.2,0,0,0-1,11" transform="translate(-88.49 -0.83)"/></g></svg>