<svg id="Camada_1" data-name="Camada 1" xmlns="http://www.w3.org/2000/svg" viewBox="0 0 324.2 321.04"><defs><style>.cls-1,.cls-7,.cls-8{fill:none;}.cls-1,.cls-2,.cls-8{stroke:#3c3c3b;}.cls-1,.cls-2,.cls-3,.cls-4,.cls-5,.cls-7,.cls-8{stroke-miterlimit:10;}.cls-1,.cls-2{stroke-width:11px;}.cls-2{fill:#3c3c3b;}.cls-10,.cls-3{fill:#878787;}.cls-3{stroke:#878787;}.cls-4,.cls-6{fill:#575756;}.cls-4,.cls-7{stroke:#575756;}.cls-5{fill:#1a97f0;stroke:#1a97f0;}.cls-9{fill:#706f6f;}.cls-11{fill:#9d9d9c;}</style></defs><g id="Camada_2" data-name="Camada 2"><rect class="cls-1" x="5.5" y="5.5" width="313.2" height="276.03" rx="3.55"/><line class="cls-1" x1="5.5" y1="97.21" x2="318.7" y2="97.21"/><rect class="cls-2" x="5.5" y="197.29" width="313.2" height="84.24"/></g><g id="Camada_4" data-name="Camada 4"><path class="cls-3" d="M131.46,118.32a7.45,7.45,0,0,0-7.15,4.26c-1.36,3.36,1,6.55,1.54,7.32a10.44,10.44,0,0,0,7.32,3.92,12,12,0,0,0,8-2"/><path class="cls-3" d="M176.22,130.24a8.55,8.55,0,0,0,5.45,4.43,8.44,8.44,0,0,0,6.47-1.19,9.63,9.63,0,0,0,3.58-10.75,10.27,10.27,0,0,0-6-6.13"/><path class="cls-3" d="M150.51,146.93V135.35c.89-.39,10.31-4.32,16.35.51a10.52,10.52,0,0,1,2.38,2.73,11.23,11.23,0,0,0-1.87,4.08c-.59,2.54.21,3.3-.34,4.6-1.42,3.31-9.29,4.67-14.31,1.53A9.88,9.88,0,0,1,150.51,146.93Z"/></g><g id="Camada_8" data-name="Camada 8"><path class="cls-3" d="M135.58,281.53a49.38,49.38,0,0,0,2.4,25.68l7.68-2.16a33.86,33.86,0,0,1,.24-8.88c.44-2.74,1-4.1,1.44-6a26.34,26.34,0,0,0-.48-12.72Z"/><path class="cls-3" d="M168.7,276.73a24.12,24.12,0,0,0-1.44,13.2c.16.85.47,2.19.72,4.32a43.7,43.7,0,0,1-.24,11.76l10.32.24a20.26,20.26,0,0,1,.24-7.68,19.59,19.59,0,0,1,1.44-4.08c1.39-2.92,1.91-10.31-.72-28.32A21.92,21.92,0,0,0,168.7,276.73Z"/><path class="cls-3" d="M258.7,265.21"/></g><g id="Camada_6" data-name="Camada 6"><path class="cls-3" d="M124.46,185.93a75.13,75.13,0,0,0-1.7,10,78.22,78.22,0,0,0,1.19,23.5,14.17,14.17,0,0,0-.51,10.9,7.65,7.65,0,0,0,2.21,5.79,7.49,7.49,0,0,0,4.77,2c.33-6.18.78-12.55,1.37-19.07q1.5-16.32,3.74-31.16Z"/><path class="cls-3" d="M191.72,187.29A55.67,55.67,0,0,1,193.59,199c0,.72.12,2.59,0,5.79a110.36,110.36,0,0,1-1.7,15.49,12,12,0,0,1,1.19,2.9c.93,3.66-2.28,14.9-1.36,11.24a6.55,6.55,0,0,1-2.22,3.4,6.81,6.81,0,0,1-4.93,1.37,42.25,42.25,0,0,0,1.53-6.47,48.28,48.28,0,0,0,.51-7A61.49,61.49,0,0,0,185.08,212c-.69-3-1-3.57-1.54-5.62a37.44,37.44,0,0,1,.17-17.2Z"/></g><g id="Camada_7" data-name="Camada 7"><path class="cls-4" d="M133.46,233.05a20.77,20.77,0,0,0-2,10.08,17.49,17.49,0,0,0,.72,3.36L131,262.81a8.24,8.24,0,0,0-1,3.36,8.35,8.35,0,0,0,1.2,4.8,60.16,60.16,0,0,0-1.2,6.24c-.52,3.62-.37,4.6.24,5.28,1,1.1,2.73,1.05,3.6,1a28.49,28.49,0,0,0,19-1.92l-1.44-5c2.59-1,3.13-1.84,3.12-2.4,0-.92-1.55-1.19-1.68-2.4s1.25-1.6,1.2-2.88-1.18-1.39-1.68-2.64c-.57-1.43.27-2.7,1-4.56a18.87,18.87,0,0,0,1-9.12l-.24,1.68h0s1.46-5.62,1.68-6.48l3.6-.24a76.59,76.59,0,0,1,1.88,10.2c.67,5.81,1,8.72.48,11-.36,1.6-1,3.21-.24,5s2,2.08,2.16,3.6c.21,2-1.92,2.81-1.68,4.08.42,2.21,7.5,3.12,13.44,2.64a37.55,37.55,0,0,0,11-2.64c-.25-1.66-.49-3.33-.72-5q-.37-2.79-.72-5.52c.26-3,.43-6.12.48-9.36a134.08,134.08,0,0,0-3.8-33.8C155.46,224.24,136,227.73,133.46,233.05Z"/></g><g id="Camada_5" data-name="Camada 5"><path class="cls-5" d="M170.09,146.59H147.46l-1.7,3.06a37.67,37.67,0,0,0-6.13,3.75,40,40,0,0,0-8.35,8.69A152,152,0,0,0,118.46,183a22.21,22.21,0,0,0,14.17,9.7,61.28,61.28,0,0,1,0,6.64c-.34,6-1.34,7.25-2.39,14.13a93.18,93.18,0,0,0-1,16.18c.06,2.38.21,4.37.34,5.79,2.4.11,6,.2,10.39,0a129.57,129.57,0,0,0,17.88-2.21,92.87,92.87,0,0,1,26.74-.34l.34-19.08a41.37,41.37,0,0,1-2.9-19.92,33,33,0,0,0,16.18-8l-10.39-24.36-15-10.72Z"/></g><g id="Camada_9" data-name="Camada 9"><path class="cls-4" d="M136.58,302.82c1.11-.33,1.94,2,4,2.47s4.54-1.17,6.48-3.12l7.44,7.44a4.36,4.36,0,0,1-.14,6.15l-.1.09a6.22,6.22,0,0,1-5.28,1.44,10.1,10.1,0,0,1-3.84,2.64c-5.49,2.08-10.76-1.77-11.28-2.16.61-3.77,1-6.88,1.2-9.12C135.46,305.36,135.54,303.12,136.58,302.82Z"/><path class="cls-4" d="M168.14,302.48c1.27-.38,2.41,3.14,4.88,3.29,2.73.17,4-4,6.24-3.6,1.48.25,1.21,2.08,3.84,4.8,2.29,2.37,3.6,2.12,4.56,4.08.08.17,1.39,2.94,0,5-1.22,1.84-4.12,2.56-7,1.44a6.56,6.56,0,0,1-3.12,2.4c-1.2.41-2,.22-5.52-.48-5.31-1.07-6.35-1.23-6.72-2.16-.16-.41-.33-1.3.72-2.88a7,7,0,0,1-.48-4.8,6.69,6.69,0,0,1,1.44-2.64C167,303.58,167.58,302.65,168.14,302.48Z"/><path class="cls-4" d="M256.78,294.25"/></g><g id="Camada_3" data-name="Camada 3"><path class="cls-6" d="M193.06,101.17a29.69,29.69,0,0,0,4.5,8.46,26.67,26.67,0,0,1-8.28-8.82,18.8,18.8,0,0,1,2.34,8.64c.07,4.84-1.92,8.59-4.68,12.78a109.06,109.06,0,0,1-17.28,20.16l-.72-2.52L163.18,144l-.72-3.28-4.68,3.78-7.2-4-.54,3.24a36.09,36.09,0,0,1-22.32-44l-7.38,14.76a33.73,33.73,0,0,1,13.12-29.88,23.4,23.4,0,0,0-15.66,4,18.17,18.17,0,0,1,11-7.56,17.74,17.74,0,0,1,10.26.9,60.06,60.06,0,0,1-5.76-6.48A58.38,58.38,0,0,1,129,69a13,13,0,0,1,7.92,4,12.38,12.38,0,0,1,2.88,5.22,17,17,0,0,1,1.44-6.84A19.19,19.19,0,0,1,145,66a31.1,31.1,0,0,1,10.46-7.24A27.42,27.42,0,0,0,143.58,85c.08-1.41.65-8.91,6.12-12.6,1.05-.71,5-3.38,9.36-2.88a9.88,9.88,0,0,0,4.68-.18,8.54,8.54,0,0,0,3.06-1.8A8.06,8.06,0,0,1,164.64,71a8.5,8.5,0,0,1-5.94,2.16,25.65,25.65,0,0,0,8.28.72,26.76,26.76,0,0,0,14.74-6.12,12.64,12.64,0,0,1-8.28,8.46,20.25,20.25,0,0,1,9.9,2.88,19.65,19.65,0,0,0,3.78,2.16,14.9,14.9,0,0,0,6.84.9,26.07,26.07,0,0,1-13.32.72c7.69,4.42,10.18,8.79,11,12.06A49.32,49.32,0,0,0,193.06,101.17Z"/><path class="cls-7" d="M150,143.83a36.09,36.09,0,0,1-22.32-44.1l-7.38,14.76a33.73,33.73,0,0,1,13.12-29.88,23.4,23.4,0,0,0-15.66,4,18.17,18.17,0,0,1,11-7.56,17.74,17.74,0,0,1,10.26.9,60.06,60.06,0,0,1-5.76-6.48A58.38,58.38,0,0,1,129,69a13,13,0,0,1,7.92,4,12.38,12.38,0,0,1,2.88,5.22,17,17,0,0,1,1.44-6.84A19.19,19.19,0,0,1,145,66a31.1,31.1,0,0,1,10.46-7.24A27.42,27.42,0,0,0,143.58,85c.08-1.41.65-8.91,6.12-12.6,1.05-.71,5-3.38,9.36-2.88a9.88,9.88,0,0,0,4.68-.18,8.54,8.54,0,0,0,3.06-1.8A8.06,8.06,0,0,1,164.64,71a8.5,8.5,0,0,1-5.94,2.16,25.65,25.65,0,0,0,8.28.72,26.76,26.76,0,0,0,14.74-6.12,12.64,12.64,0,0,1-8.28,8.46,20.25,20.25,0,0,1,9.9,2.88,19.65,19.65,0,0,0,3.78,2.16,14.9,14.9,0,0,0,6.84.9,26.07,26.07,0,0,1-13.32.72c7.69,4.42,10.18,8.79,11,12.06a48.67,48.67,0,0,0,1.44,6.3,29.69,29.69,0,0,0,4.5,8.46,26.67,26.67,0,0,1-8.28-8.82,18.8,18.8,0,0,1,2.34,8.64c.07,4.84-1.92,8.59-4.68,12.78a109.06,109.06,0,0,1-17.28,20.16l-.72-2.52-5.76,4.14-.74-3.32-4.68,3.78-7.2-4Z"/></g><g id="Camada_11" data-name="Camada 11"><path class="cls-8" d="M115.9,150.25a20.75,20.75,0,0,0-13,4.56"/><path class="cls-8" d="M109.18,138l-4.8,1.92"/><path class="cls-8" d="M107.26,131.73a7.35,7.35,0,0,0-5.28,1.44"/><path class="cls-8" d="M112.78,119.73a78.27,78.27,0,0,0-11-2.64,79.71,79.71,0,0,0-9.12-1"/><path class="cls-8" d="M148.54,49.45a71.82,71.82,0,0,0-2.16-7.2q-.58-1.62-1.2-3.12"/><path class="cls-8" d="M167.26,47.73l3.36-7.92"/></g><g id="Camada_12" data-name="Camada 12"><rect class="cls-9" x="14.2" y="44.22" width="16.2" height="46.8" transform="translate(-8.2 3.28) rotate(-7.11)"/><rect class="cls-10" x="18.15" y="78.88" width="11.52" height="9.18" transform="translate(-10.15 3.6) rotate(-7.11)"/><rect class="cls-10" x="19.1" y="59.51" width="46.8" height="16.2" transform="matrix(0.02, -1, 1, 0.02, -25.85, 108.91)"/><rect class="cls-11" x="37.28" y="77.77" width="9.18" height="11.52" transform="matrix(0.02, -1, 1, 0.02, -42.39, 123.92)"/><rect class="cls-6" x="272.61" y="159.18" width="46.8" height="16.2" transform="translate(25.94 373.83) rotate(-66.88)"/><rect class="cls-11" x="284.82" y="176.02" width="9.18" height="11.52" transform="translate(8.59 376.57) rotate(-66.88)"/></g></svg>