<svg xmlns="http://www.w3.org/2000/svg" viewBox="0 0 334.86 260.76"><defs><style>.cls-1{fill:#575756;}.cls-2{fill:#b2b2b2;stroke:#b2b2b2;}.cls-2,.cls-3,.cls-4,.cls-5,.cls-6,.cls-7,.cls-8{stroke-miterlimit:10;}.cls-2,.cls-4,.cls-5{stroke-width:4px;}.cls-3,.cls-5{fill:#9d9d9c;}.cls-3,.cls-4,.cls-5{stroke:#9d9d9c;}.cls-4{fill:none;}.cls-6{fill:#706f6f;stroke:#706f6f;}.cls-7{fill:#878787;stroke:#878787;}.cls-8{fill:#3c3c3b;stroke:#3c3c3b;}.cls-9{fill:#3d90ce;}</style></defs><g id="Camada_9" data-name="Camada 9"><path class="cls-1" d="M450.42,390.12c-7.57-5.71-12.08-11.43-19.66-17.14l-172.4-6.62-61.2-71.28-56.83-4.55,62.59,99.59,241.92,5.76C447.72,394,447.54,392,450.42,390.12Z" transform="translate(-125.8 -199.87)"/><path class="cls-2" d="M534.12,420.36" transform="translate(-125.8 -199.87)"/></g><g id="Camada_8" data-name="Camada 8"><path class="cls-3" d="M453.48,402.36H137.16V390.12H453.48Z" transform="translate(-125.8 -199.87)"/><path class="cls-3" d="M127.32,298l65.52,96.48,24.48.72L144.6,289.32a10,10,0,0,0-12.24-5C127.35,286.21,124.72,292.54,127.32,298Z" transform="translate(-125.8 -199.87)"/><path class="cls-3" d="M283.56,430.44" transform="translate(-125.8 -199.87)"/><path class="cls-3" d="M164.76,383.64" transform="translate(-125.8 -199.87)"/><line class="cls-4" x1="53.84" y1="165.53" x2="32.96" y2="192.89"/><line class="cls-4" x1="49.04" y1="157.61" x2="22.16" y2="193.37"/><path class="cls-5" d="M162.36,399.72,138.84,446c-3.66,4.57-2.45,10.19.24,11.76,2.38,1.38,6.91.17,9.6-3.84l26.88-56.64Z" transform="translate(-125.8 -199.87)"/><path class="cls-5" d="M200.52,397.32" transform="translate(-125.8 -199.87)"/><path class="cls-5" d="M197.62,399.72,174.1,446c-3.65,4.57-2.45,10.19.24,11.76,2.38,1.38,6.91.17,9.6-3.84l26.88-56.64Z" transform="translate(-125.8 -199.87)"/><path class="cls-5" d="M405.53,400l22.76,46.32c3.53,4.58,2.37,10.2-.24,11.76-2.3,1.39-6.68.18-9.28-3.84l-26-56.64Z" transform="translate(-125.8 -199.87)"/><path class="cls-5" d="M433.69,400q11.38,23.16,22.76,46.32c3.54,4.58,2.37,10.2-.23,11.76-2.31,1.39-6.69.18-9.29-3.84l-26-56.64Z" transform="translate(-125.8 -199.87)"/></g><g id="Camada_3" data-name="Camada 3"><path class="cls-6" d="M408.36,363.48c7.28-5.76,12.74-10.18,15.48-12.36a5.34,5.34,0,0,0,2-2.88,4.45,4.45,0,0,0-1.2-4.32c-2-1.54-5.89.52-8.16,1.68a204.27,204.27,0,0,1-20.28,8.88,7.93,7.93,0,0,1-3,.36c-4.5-.34-7.08-4.55-7.44-5.16l-42.6-41a14.85,14.85,0,0,0-4.2-4.08c-6.75-4.31-16.89-2.66-26.16,3.48l12,26.16c.93-1,2.78-2.76,4.68-2.4a3.13,3.13,0,0,1,1.44.72c3,2.47,12.38,12.13,12.84,12.6a192.11,192.11,0,0,0,48.6,16.08C397.94,362.23,403.27,363,408.36,363.48Z" transform="translate(-125.8 -199.87)"/></g><g id="Camada_2" data-name="Camada 2"><path class="cls-7" d="M445.87,343.38q3.09,1.49-8.2,32.78L427,371.25a152.46,152.46,0,0,1-31.15,7.37c-29,3.71-52.87.67-67.85-4.16-7.74,1.8-9.94-.18-16.58-.76-7.23-.62-5.38-19,4.92-35.24,3.59.42,9,1.16,15.57,2.46,17.83,3.52,22.28,6.89,43.45,13.11,23.51,6.92,35.51,7.91,41.8,8.2,5.44.25,10,.15,13.12,0Q443.25,342.12,445.87,343.38Z" transform="translate(-125.8 -199.87)"/></g><g id="Camada_6" data-name="Camada 6"><path class="cls-7" d="M261.24,331.44c-4-1.55-12.58-5.82-18.65-11.83a48.67,48.67,0,0,1-12.29-20.5l18.85-27.86a16.92,16.92,0,0,0,2.46-9c-.23-9.08-8.24-14.27-9-14.75l-17.21-28.69a13,13,0,0,0,1.64-8.2c-.94-6.5-6.79-9.54-7.38-9.84a42.47,42.47,0,0,1,.56,10.09c-.33,5.07-1.34,5.92-1.92,6.24-1.84,1-4.44-.58-5-1a5.46,5.46,0,0,0,1,3.84,5.61,5.61,0,0,0,4.32,2.16L231,257.64a7.8,7.8,0,0,1,1,4.56c-.46,3.77-4.12,6.1-5.76,7.2-4.21,2.82-9.78,7.34-17.28,15.12l-7.68.72-.72-11.76h-9.84v11.28a65.79,65.79,0,0,1-20.88-.48c-5.39-1-10.2-1.89-10.8-4.32-.55-2.21,2.24-6.32,19-14.64l-3.12-12.24a170.49,170.49,0,0,0-22.32,15.12c-4.55,3.64-8.62,7.28-12.24,10.8-1.32,1.19-3.11,3.22-3.12,5.76,0,3.91,4.21,6.75,6.72,8.4,12.78,8.38,26.33,16.49,30.48,19a297,297,0,0,0,53.76,58.32l23.52-19.68C254.09,343.93,258.79,338.27,261.24,331.44Z" transform="translate(-125.8 -199.87)"/></g><g id="Camada_7" data-name="Camada 7"><path class="cls-8" d="M172.41,271.59a16.72,16.72,0,0,0,5.13,5.22,18.28,18.28,0,0,0,11.26,2.74,4.92,4.92,0,0,0,3.57-1.95q3.81-5.07,11-14.66c2.77-3.73,4.42-6,4.17-9.08-.35-4.28-4.22-7.72-7.74-9.09-4.92-1.91-10.87-.42-15.34,3.74a4.51,4.51,0,0,1-2.14,1.09c-.9.19-1.89.36-2.95.48-.71.08-1.39.13-2,.16a4.78,4.78,0,0,0-3.45,1.7,16.53,16.53,0,0,0-2.61,4.26C171.07,256.59,168,264.37,172.41,271.59Z" transform="translate(-125.8 -199.87)"/></g><g id="Camada_4" data-name="Camada 4"><path class="cls-6" d="M184.44,272.14c1.74,2,5.2,5.85,10.68,5.88a13,13,0,0,0,8.28-3.12,32.21,32.21,0,0,0,.48-7.68,33.36,33.36,0,0,0-4.56-14.88,32.22,32.22,0,0,1-3.6,7.2c-2.06,3.09-4.41,6.61-7,6.36s-3.59-4.55-5.28-4.2c-1.29.27-2,3-1.8,5.16C181.73,267.36,182,269.37,184.44,272.14Z" transform="translate(-125.8 -199.87)"/></g><g id="Camada_5" data-name="Camada 5"><path class="cls-9" d="M224.16,368l37.08-37.62a214.86,214.86,0,0,1,52.38-24.48L328,334l-12.42,5.58.18,34.56a235.29,235.29,0,0,1-25.38,7.74c-11.69,2.85-18.93,4.62-26.46,4.5C257.7,386.24,242.16,384.7,224.16,368Z" transform="translate(-125.8 -199.87)"/></g></svg>