<svg width="167" height="167" viewBox="0 0 167 167" fill="none" xmlns="http://www.w3.org/2000/svg">
<path d="M85.5485 120.983L45.6736 81.108L29.6741 97.1075L69.5491 136.982L85.5485 120.983Z" stroke="#171823" stroke-width="6" stroke-linecap="round" stroke-linejoin="round"/>
<path d="M152.292 43.2693L121.933 14.2726" stroke="#171823" stroke-width="6" stroke-linecap="round" stroke-linejoin="round"/>
<path d="M37.4098 104.871C18.7967 118.274 17.5632 148.541 17.5632 148.541C25.9504 148.819 34.3004 147.303 42.054 144.093C49.8076 140.883 56.786 136.053 62.5219 129.928" stroke="#171823" stroke-width="6" stroke-linecap="round" stroke-linejoin="round"/>
<path d="M116.539 104.871C122.817 143.294 87.2105 159.366 87.2105 159.366L85.5351 120.999C165.216 88.2831 159.859 7.05557 159.859 7.05557C146.723 6.75341 133.617 8.45444 120.994 12.1001C94.6483 19.5564 61.8039 37.6356 45.6578 81.0661L6.99554 77.6602C6.99554 77.6602 21.5031 46.0308 60.7176 50.7992" stroke="#171823" stroke-width="6" stroke-linecap="round" stroke-linejoin="round"/>
<path d="M106.155 77.4945C115.601 77.4945 123.258 69.837 123.258 60.391C123.258 50.9451 115.601 43.2876 106.155 43.2876C96.709 43.2876 89.0515 50.9451 89.0515 60.391C89.0515 69.837 96.709 77.4945 106.155 77.4945Z" stroke="#171823" stroke-width="6" stroke-linecap="round" stroke-linejoin="round"/>
</svg>
