<svg width="167" height="167" viewBox="0 0 167 167" fill="none" xmlns="http://www.w3.org/2000/svg">
<path d="M95.5379 24.4239L107.785 48.9172C109.455 52.3269 113.908 55.5972 117.665 56.2235L139.862 59.9114C154.057 62.2772 157.397 72.5755 147.169 82.7346L129.912 99.9913C126.99 102.914 125.389 108.55 126.294 112.586L131.234 133.948C135.131 150.857 126.155 157.398 111.194 148.56L90.3887 136.244C86.6312 134.018 80.4383 134.018 76.6112 136.244L55.8056 148.56C40.9147 157.398 31.8689 150.787 35.7656 133.948L40.706 112.586C41.6106 108.55 40.0101 102.914 37.0876 99.9913L19.831 82.7346C9.67182 72.5755 12.9422 62.2772 27.1372 59.9114L49.3343 56.2235C53.0222 55.5972 57.4756 52.3269 59.1456 48.9172L71.3924 24.4239C78.0724 11.1335 88.9274 11.1335 95.5379 24.4239Z" stroke="white" stroke-width="8" stroke-linecap="round" stroke-linejoin="round"/>
</svg>
