<svg id="Camada_1" data-name="Camada 1" xmlns="http://www.w3.org/2000/svg" viewBox="0 0 725 625"><defs><style>.cls-1{fill:#fccd1d;}.cls-2{fill:#f9a215;}.cls-3{fill:#212529;}.cls-4{fill:#dd051d;}.cls-5{fill:#a60416;}.cls-6{fill:#fff;}</style></defs><g id="Flat"><g id="Color"><path class="cls-1" d="M631.87,343.75c0-26.38,19.63-55.5,12.5-79.25s-41.87-36.5-56.87-57-16.25-56-37.5-71.13-54.37-5.25-79-13.12S426.38,87.5,400,87.5s-47.87,28-71.62,35.75-58.5-1.75-78.38,13.12-21.87,50-37.5,71.13-48.13,32.38-56.12,57,11.87,52.87,11.87,79.25-19.62,55.5-11.87,79.25,41.12,36.5,56.12,57,16.25,56,37.5,71.13,54.38,5.24,79,12.5S373.62,600,400,600s47.88-28,71.62-35.75,58.5,1.75,79-12.5,21.88-50,37.5-71.12,48.13-32.38,56.13-57S631.87,370.13,631.87,343.75Z" transform="translate(-37.5 -87.5)"/><circle class="cls-2" cx="362.5" cy="256.25" r="181.25"/><path class="cls-1" d="M417.12,250l19,32.88a19.29,19.29,0,0,0,13.26,9.5L487.5,300a19.12,19.12,0,0,1,10.62,32l-26.24,27.75a18.76,18.76,0,0,0-5,15.25l4.5,37.5a19.62,19.62,0,0,1-27.75,19.75L408.5,416.38a20,20,0,0,0-16.5,0l-35.13,15.87a19.63,19.63,0,0,1-28-19.75l4.51-37.5a18.78,18.78,0,0,0-5-15.25L302.13,332a19.12,19.12,0,0,1,10.37-32l37.5-7.38a19.2,19.2,0,0,0,13.25-9.5L382.87,250a19.87,19.87,0,0,1,34.25,0Z" transform="translate(-37.5 -87.5)"/><polygon class="cls-3" points="525 450 525 625 725 625 650 537.5 725 450 525 450"/><polygon class="cls-3" points="200 450 200 625 0 625 75 537.5 0 450 200 450"/><rect class="cls-4" x="125" y="400" width="475" height="175"/><polygon class="cls-5" points="125 575 200 625 200 575 125 575"/><polygon class="cls-5" points="600 575 525 625 525 575 600 575"/></g></g><path class="cls-6" d="M255.34,552l13-34.08h4.07l13,34.08h-6.92l-8.15-23.27L262.26,552Zm6.26-5.46v-6.19h17.93v6.19Z" transform="translate(-37.5 -87.5)"/><path class="cls-6" d="M296.71,552.35a7.22,7.22,0,0,1-6-2.75q-2.15-2.76-2.15-7.77v-3.89q0-5.07,2.15-7.84a7.19,7.19,0,0,1,6-2.78,5.94,5.94,0,0,1,3.55,1.16,8.1,8.1,0,0,1,2.59,3.29l-.49,5.39a4.84,4.84,0,0,0-.42-2.11,3,3,0,0,0-1.23-1.32,4,4,0,0,0-2-.46,3.4,3.4,0,0,0-2.8,1.23,5.4,5.4,0,0,0-1,3.46v3.87a5.13,5.13,0,0,0,1,3.37,3.43,3.43,0,0,0,2.8,1.2,4,4,0,0,0,2-.45,2.85,2.85,0,0,0,1.23-1.29,4.51,4.51,0,0,0,.42-2l.33,5.55a6.07,6.07,0,0,1-6,4.17Zm5.65-.35V517.92h6.42V552Z" transform="translate(-37.5 -87.5)"/><path class="cls-6" d="M314.76,524.34v-6.42h6.42v6.42Zm0,27.66V527.67h6.42V552Z" transform="translate(-37.5 -87.5)"/><path class="cls-6" d="M337.45,552.35q-5.24,0-8.11-3c-1.92-2-2.89-4.74-2.89-8.32v-2.6c0-3.55,1-6.3,2.89-8.24s4.62-2.92,8.11-2.92a14,14,0,0,1,5.42,1,9.15,9.15,0,0,1,3.86,2.88l-4.15,4A6.34,6.34,0,0,0,340.5,534a7.1,7.1,0,0,0-2.51-.45,5.18,5.18,0,0,0-3.78,1.3,4.89,4.89,0,0,0-1.33,3.67v2.6a5.06,5.06,0,0,0,1.33,3.76,5.15,5.15,0,0,0,3.78,1.32,6.53,6.53,0,0,0,2.51-.49,5.88,5.88,0,0,0,2.08-1.4l4.15,4.26a9.31,9.31,0,0,1-3.86,2.83A14.22,14.22,0,0,1,337.45,552.35Z" transform="translate(-37.5 -87.5)"/><path class="cls-6" d="M350.71,524.34v-6.42h6.42v6.42Zm0,27.66V527.67h6.42V552Z" transform="translate(-37.5 -87.5)"/><path class="cls-6" d="M372.91,552.35c-3.35,0-5.93-.92-7.76-2.78s-2.74-4.45-2.74-7.81v-4q0-5,2.74-7.74c1.83-1.83,4.41-2.74,7.76-2.74s5.93.91,7.76,2.74,2.74,4.41,2.74,7.74v4c0,3.34-.92,5.93-2.74,7.77S376.25,552.35,372.91,552.35Zm0-6.19a4,4,0,0,0,3-1.13,4.47,4.47,0,0,0,1.08-3.2v-4a4.4,4.4,0,0,0-1.08-3.17,4,4,0,0,0-3-1.12,3.9,3.9,0,0,0-3,1.12,4.39,4.39,0,0,0-1.07,3.17v4a4.47,4.47,0,0,0,1.07,3.2A3.87,3.87,0,0,0,372.88,546.16Z" transform="translate(-37.5 -87.5)"/><path class="cls-6" d="M389.27,552V527.67h6.42V552Zm14.06,0V537.26a3.65,3.65,0,0,0-1-2.78,4,4,0,0,0-2.89-1,3.7,3.7,0,0,0-2.76,1,3.85,3.85,0,0,0-1,2.8l-.49-5.39a9.33,9.33,0,0,1,2.56-3.39,6.14,6.14,0,0,1,3.93-1.2,7.22,7.22,0,0,1,5.95,2.59q2.12,2.6,2.11,7.32V552Z" transform="translate(-37.5 -87.5)"/><path class="cls-6" d="M426.51,552.35q-5.29,0-8.22-2.85c-1.94-1.89-2.91-4.58-2.91-8v-2.74c0-3.62.93-6.43,2.8-8.41s4.5-3,7.91-3a8.73,8.73,0,0,1,7.46,3.55q2.64,3.55,2.64,10v1.59H419.55v-4.33h10.78l-.07-.57a5.73,5.73,0,0,0-1.31-3.24,3.67,3.67,0,0,0-2.86-1.16,4.66,4.66,0,0,0-3.6,1.38,5.56,5.56,0,0,0-1.28,3.91v3.1a5.13,5.13,0,0,0,1.4,3.84,5.34,5.34,0,0,0,3.9,1.36,7.31,7.31,0,0,0,2.55-.46,7.68,7.68,0,0,0,2.3-1.3l4.2,3.73a13.92,13.92,0,0,1-4.27,2.68A12.61,12.61,0,0,1,426.51,552.35Z" transform="translate(-37.5 -87.5)"/><path class="cls-6" d="M465.88,552.35a23,23,0,0,1-4.77-.49,20.55,20.55,0,0,1-4.37-1.44,17.55,17.55,0,0,1-3.68-2.29l3-5.29a14.42,14.42,0,0,0,4.55,2.49,16.18,16.18,0,0,0,5.29.88,9.25,9.25,0,0,0,4.88-1.07,3.33,3.33,0,0,0,1.73-3v0a2.92,2.92,0,0,0-.86-2.26,5.33,5.33,0,0,0-2.29-1.16c-.94-.25-2-.46-3.08-.64-1.33-.2-2.67-.45-4-.76a13.06,13.06,0,0,1-3.75-1.45,7.42,7.42,0,0,1-2.76-2.85,10.1,10.1,0,0,1-1-4.94v0A9.48,9.48,0,0,1,458,520.3q3.29-2.73,9.28-2.73a18.14,18.14,0,0,1,5.63.93,20,20,0,0,1,5.32,2.63l-2.72,5.44a16.39,16.39,0,0,0-4.11-2.12,12.69,12.69,0,0,0-4.12-.74,9,9,0,0,0-4.57,1,3,3,0,0,0-1.61,2.73v0a3.12,3.12,0,0,0,1,2.48,6.2,6.2,0,0,0,2.5,1.26c1,.27,2.15.52,3.33.76s2.62.56,3.92.92a13.48,13.48,0,0,1,3.56,1.59,7.36,7.36,0,0,1,2.58,2.83,10,10,0,0,1,1,4.69v0a9.16,9.16,0,0,1-3.4,7.62Q472.06,552.36,465.88,552.35Z" transform="translate(-37.5 -87.5)"/><path class="cls-6" d="M494.69,552.35q-5.29,0-8.22-2.85c-1.94-1.89-2.91-4.58-2.91-8v-2.74c0-3.62.93-6.43,2.8-8.41s4.5-3,7.91-3a8.73,8.73,0,0,1,7.46,3.55q2.64,3.55,2.64,10v1.59H487.73v-4.33h10.78l-.07-.57a5.73,5.73,0,0,0-1.31-3.24,3.67,3.67,0,0,0-2.86-1.16,4.66,4.66,0,0,0-3.6,1.38,5.56,5.56,0,0,0-1.28,3.91v3.1a5.13,5.13,0,0,0,1.4,3.84,5.34,5.34,0,0,0,3.9,1.36,7.31,7.31,0,0,0,2.55-.46,7.68,7.68,0,0,0,2.3-1.3l4.2,3.73a13.92,13.92,0,0,1-4.27,2.68A12.61,12.61,0,0,1,494.69,552.35Z" transform="translate(-37.5 -87.5)"/><path class="cls-6" d="M515.83,527.67v14.79a3.62,3.62,0,0,0,1,2.73,3.81,3.81,0,0,0,2.8,1,3.71,3.71,0,0,0,2.77-1,3.93,3.93,0,0,0,1-2.85l.32,5.32a8,8,0,0,1-2.14,3.26,5.53,5.53,0,0,1-4,1.45,7.46,7.46,0,0,1-6.05-2.53q-2.13-2.54-2.13-7.12v-15ZM523.38,552V527.67h6.39V552Z" transform="translate(-37.5 -87.5)"/><path class="cls-6" d="M231.3,619.49V585.27h6.42v34.22ZM243.37,610a6.2,6.2,0,0,1-3.68-1.09,6.43,6.43,0,0,1-2.3-3.08l.33-5.56a4.52,4.52,0,0,0,.42,2,2.85,2.85,0,0,0,1.23,1.29,4,4,0,0,0,2,.45,3.43,3.43,0,0,0,2.8-1.2,5.13,5.13,0,0,0,1-3.37v-3.87a5.4,5.4,0,0,0-1-3.46,3.4,3.4,0,0,0-2.8-1.23,4,4,0,0,0-2,.46,3,3,0,0,0-1.23,1.32,4.84,4.84,0,0,0-.42,2.11l-.49-5.39a8.1,8.1,0,0,1,2.59-3.29,5.94,5.94,0,0,1,3.55-1.16,7.2,7.2,0,0,1,6,2.78q2.13,2.77,2.13,7.84v3.89q0,5-2.13,7.77A7.23,7.23,0,0,1,243.37,610Z" transform="translate(-37.5 -87.5)"/><path class="cls-6" d="M257.41,609.6V585.27h6.89V609.6ZM271.09,592a2.75,2.75,0,0,0-1.13-.7,5.1,5.1,0,0,0-1.58-.23,3.78,3.78,0,0,0-3,1.25,5.22,5.22,0,0,0-1.06,3.48l-.49-6.33a8.82,8.82,0,0,1,2.61-3.37,5.73,5.73,0,0,1,3.53-1.22,7.52,7.52,0,0,1,2.75.48,5.86,5.86,0,0,1,2.14,1.42Z" transform="translate(-37.5 -87.5)"/><path class="cls-6" d="M277.54,581.94v-6.42H284v6.42Zm0,27.66V585.27H284V609.6Z" transform="translate(-37.5 -87.5)"/><path class="cls-6" d="M289.94,609.6V585.27h6.42V609.6Zm14.18,0v-14a4.77,4.77,0,0,0-1-3.29,3.81,3.81,0,0,0-3-1.16,3.7,3.7,0,0,0-2.76,1,3.85,3.85,0,0,0-1,2.8l-.49-5.39a8.82,8.82,0,0,1,2.66-3.39,6.22,6.22,0,0,1,3.83-1.2,7.19,7.19,0,0,1,6.05,2.78q2.13,2.77,2.13,7.84V609.6Zm14.18,0v-14a4.82,4.82,0,0,0-1-3.29,4.2,4.2,0,0,0-5.74,0,4.53,4.53,0,0,0-1,3.15l-1.2-5.62a9.13,9.13,0,0,1,3-3.58,7.19,7.19,0,0,1,4.08-1.25,7.33,7.33,0,0,1,6.13,2.78q2.18,2.77,2.17,7.84V609.6Z" transform="translate(-37.5 -87.5)"/><path class="cls-6" d="M341.48,610q-5.3,0-8.22-2.85c-1.94-1.89-2.92-4.58-2.92-8.05v-2.74c0-3.62.94-6.43,2.81-8.41s4.5-3,7.91-3a8.75,8.75,0,0,1,7.46,3.55q2.64,3.56,2.64,10v1.59H334.52v-4.34H345.3l-.07-.56a5.73,5.73,0,0,0-1.31-3.24,3.67,3.67,0,0,0-2.86-1.16,4.66,4.66,0,0,0-3.6,1.38,5.56,5.56,0,0,0-1.28,3.91v3.1a5.13,5.13,0,0,0,1.4,3.84,5.32,5.32,0,0,0,3.9,1.36,7.31,7.31,0,0,0,2.55-.46,7.68,7.68,0,0,0,2.3-1.3l4.19,3.73a13.94,13.94,0,0,1-4.26,2.68A12.81,12.81,0,0,1,341.48,610Z" transform="translate(-37.5 -87.5)"/><path class="cls-6" d="M356.43,581.94v-6.42h6.42v6.42Zm0,27.66V585.27h6.42V609.6Z" transform="translate(-37.5 -87.5)"/><path class="cls-6" d="M368.83,609.6V585.27h6.89V609.6ZM382.52,592a2.86,2.86,0,0,0-1.14-.7,5.1,5.1,0,0,0-1.58-.23,3.74,3.74,0,0,0-3,1.25,5.23,5.23,0,0,0-1.07,3.48l-.49-6.33a8.82,8.82,0,0,1,2.61-3.37,5.73,5.73,0,0,1,3.53-1.22,7.52,7.52,0,0,1,2.75.48,6,6,0,0,1,2.15,1.42Z" transform="translate(-37.5 -87.5)"/><path class="cls-6" d="M398.64,610c-3.34,0-5.93-.92-7.76-2.78s-2.74-4.45-2.74-7.81v-4c0-3.33.92-5.91,2.74-7.74s4.42-2.74,7.76-2.74,5.93.91,7.76,2.74,2.74,4.41,2.74,7.74v4q0,5-2.74,7.77C404.57,609,402,610,398.64,610Zm0-6.19a4,4,0,0,0,3-1.13,4.47,4.47,0,0,0,1.08-3.2v-4a4.4,4.4,0,0,0-1.08-3.17,4,4,0,0,0-3-1.12,3.92,3.92,0,0,0-3,1.12,4.44,4.44,0,0,0-1.07,3.17v4a4.52,4.52,0,0,0,1.07,3.2A3.93,3.93,0,0,0,398.62,603.76Z" transform="translate(-37.5 -87.5)"/><path class="cls-6" d="M428.36,609.6V575.52h6.42V609.6Zm2.32-27.89v-6.19h20.51v6.19Zm0,14.06v-6.19h17.93v6.19Zm0,13.83v-6.19h20.51v6.19Z" transform="translate(-37.5 -87.5)"/><path class="cls-6" d="M465.88,610a21.69,21.69,0,0,1-6.24-.88,15.53,15.53,0,0,1-5.05-2.45l4-4.94a15.23,15.23,0,0,0,3.68,1.73,12,12,0,0,0,3.65.61,9.8,9.8,0,0,0,3.5-.5c.82-.34,1.24-.8,1.24-1.4a1.47,1.47,0,0,0-.86-1.47,6.82,6.82,0,0,0-2.24-.53c-.92-.09-1.89-.2-2.93-.34s-2.08-.31-3.1-.5a10,10,0,0,1-2.8-1,4.83,4.83,0,0,1-2-2,7.58,7.58,0,0,1-.75-3.67,6.79,6.79,0,0,1,2.6-5.69q2.61-2,7.36-2a18.75,18.75,0,0,1,5.5.82,17,17,0,0,1,4.84,2.32l-3.82,4.66a15.61,15.61,0,0,0-3.33-1.38,12,12,0,0,0-3.33-.49,8.37,8.37,0,0,0-3,.43q-1.08.44-1.08,1.26a1.12,1.12,0,0,0,.75,1.05,6.75,6.75,0,0,0,2,.51l2.63.31c1.07.13,2.16.28,3.25.46a10,10,0,0,1,3,1,5.41,5.41,0,0,1,2.22,2.13,7.82,7.82,0,0,1,.84,3.94,7.05,7.05,0,0,1-2.73,5.93C471.76,609.25,469.2,610,465.88,610Z" transform="translate(-37.5 -87.5)"/><path class="cls-6" d="M479.59,590.76v-5.49H491.5v5.49Zm8.68,19q-3.27,0-4.71-1.67a7,7,0,0,1-1.46-4.78V578.19h6.42v23.49a2.26,2.26,0,0,0,.36,1.36,1.17,1.17,0,0,0,1,.49h1.59v6.19Z" transform="translate(-37.5 -87.5)"/><path class="cls-6" d="M503.55,585.27v14.79a3.66,3.66,0,0,0,1,2.73,3.85,3.85,0,0,0,2.8,1,3.72,3.72,0,0,0,2.78-1,3.92,3.92,0,0,0,1-2.85l.33,5.32a8,8,0,0,1-2.14,3.26,5.55,5.55,0,0,1-4,1.45,7.46,7.46,0,0,1-6.05-2.53c-1.42-1.69-2.13-4.06-2.13-7.13v-15Zm7.54,24.33V585.27h6.4V609.6Z" transform="translate(-37.5 -87.5)"/><path class="cls-6" d="M531.3,610a7.22,7.22,0,0,1-6-2.75q-2.14-2.76-2.14-7.77v-3.89q0-5.07,2.14-7.84a7.19,7.19,0,0,1,6-2.78,6,6,0,0,1,3.55,1.16,8.19,8.19,0,0,1,2.59,3.29l-.49,5.39a4.7,4.7,0,0,0-.43-2.11,3,3,0,0,0-1.23-1.32,4,4,0,0,0-1.95-.46,3.38,3.38,0,0,0-2.8,1.23,5.34,5.34,0,0,0-1,3.46v3.87a5.08,5.08,0,0,0,1,3.37,3.42,3.42,0,0,0,2.8,1.2,4,4,0,0,0,1.95-.45,2.85,2.85,0,0,0,1.23-1.29,4.39,4.39,0,0,0,.43-2l.32,5.56a6,6,0,0,1-6,4.17Zm5.65-.35V575.52h6.42V609.6Z" transform="translate(-37.5 -87.5)"/><path class="cls-6" d="M559.49,610c-3.34,0-5.93-.92-7.75-2.78s-2.75-4.45-2.75-7.81v-4q0-5,2.75-7.74c1.82-1.83,4.41-2.74,7.75-2.74s5.93.91,7.76,2.74,2.74,4.41,2.74,7.74v4q0,5-2.74,7.77C565.42,609,562.84,610,559.49,610Zm0-6.19a4,4,0,0,0,3-1.13,4.47,4.47,0,0,0,1.08-3.2v-4a4.4,4.4,0,0,0-1.08-3.17,4,4,0,0,0-3-1.12,3.92,3.92,0,0,0-3,1.12,4.43,4.43,0,0,0-1.06,3.17v4a4.51,4.51,0,0,0,1.06,3.2A3.93,3.93,0,0,0,559.47,603.76Z" transform="translate(-37.5 -87.5)"/></svg>